<svg xmlns="http://www.w3.org/2000/svg" xmlns:xlink="http://www.w3.org/1999/xlink" viewBox="0 0 533.16 118.63"><defs><style>.cls-1{fill:#d62750;}.cls-2{opacity:0.24;fill:url(#linear-gradient);}.cls-3{fill:#fff;}.cls-4{opacity:0.9;fill:url(#linear-gradient-2);}.cls-5{opacity:0.8;fill:url(#linear-gradient-3);}</style><linearGradient id="linear-gradient" x1="75.6" y1="133.89" x2="63.27" y2="37.21" gradientUnits="userSpaceOnUse"><stop offset="0" stop-color="#8a1934"/><stop offset="0.17" stop-color="#a11d3d"/><stop offset="0.44" stop-color="#be2348"/><stop offset="0.66" stop-color="#d0264f"/><stop offset="0.83" stop-color="#d62751"/></linearGradient><linearGradient id="linear-gradient-2" x1="42.39" y1="15.01" x2="47.24" y2="33.91" gradientUnits="userSpaceOnUse"><stop offset="0.22" stop-color="#921a37"/><stop offset="0.31" stop-color="#a11d3d"/><stop offset="0.52" stop-color="#be2248"/><stop offset="0.7" stop-color="#d0264f"/><stop offset="0.83" stop-color="#d62751"/></linearGradient><linearGradient id="linear-gradient-3" x1="88.88" y1="16.26" x2="83.77" y2="32.6" gradientUnits="userSpaceOnUse"><stop offset="0.16" stop-color="#8a1934"/><stop offset="0.3" stop-color="#a11d3d"/><stop offset="0.51" stop-color="#be2348"/><stop offset="0.7" stop-color="#d0264f"/><stop offset="0.83" stop-color="#d62751"/></linearGradient></defs><title>Logo 2</title><g id="Layer_2" data-name="Layer 2"><g id="Layer_1-2" data-name="Layer 1"><path class="cls-1" d="M125.15,99.05l-3.47-12.82a65.08,65.08,0,0,0-8.74-77.6,63.94,63.94,0,0,0-6.43-6A11.72,11.72,0,0,0,89.38,5.17l-5.63,8.34h0L67,38.37l-1.65,2.46-1.59-2.35-16.84-25h0L41.28,5.17A11.74,11.74,0,0,0,24.14,2.64a66.18,66.18,0,0,0-6.43,6,65.27,65.27,0,0,0,82.57,99.8l11.78,3.45,11.84,3.46a3.59,3.59,0,0,0,4.48-4.39Zm-16-44a43.86,43.86,0,1,1-79-28h0L48.25,53.9,56.43,66a10.74,10.74,0,0,0,17.8,0l9.21-13.67,17-25.25h0A43.7,43.7,0,0,1,109.15,55.08Z"/><path class="cls-2" d="M128.38,111a3.59,3.59,0,0,1-4.48,4.39l-11.84-3.46-11.78-3.45A65.28,65.28,0,0,1,17.71,8.63a66.18,66.18,0,0,1,6.43-6A11.74,11.74,0,0,1,41.28,5.17l5.62,8.34A44.32,44.32,0,0,0,30.17,27.1a43.86,43.86,0,1,0,70.31,0,44.18,44.18,0,0,0-16.73-13.6l5.63-8.34a11.72,11.72,0,0,1,17.13-2.53,65.12,65.12,0,0,1,15.17,83.59l3.48,12.82Z"/><path class="cls-3" d="M163.36,75.34V31.77a3.35,3.35,0,0,1,.26-1.3,3.11,3.11,0,0,1,.7-1.07,3.42,3.42,0,0,1,1.05-.71,3.53,3.53,0,0,1,1.32-.25,3.2,3.2,0,0,1,2.95,1.79l18.84,37.64,18.83-37.64a3.39,3.39,0,0,1,2.95-1.79,3.54,3.54,0,0,1,1.3.25,3.24,3.24,0,0,1,1.78,1.78,3.54,3.54,0,0,1,.25,1.3V75.34a3.33,3.33,0,0,1-6.66,0V45.9L191.36,77a3.14,3.14,0,0,1-2.88,1.67,3.2,3.2,0,0,1-3-2L170,45.9V75.34a3.33,3.33,0,0,1-6.66,0Z"/><path class="cls-3" d="M247.21,75.4v-.63a17.94,17.94,0,0,1-5.12,2.89,17.13,17.13,0,0,1-5.9,1,17.58,17.58,0,0,1-17.58-17.58,17.58,17.58,0,0,1,35.16,0V75.4a3.28,3.28,0,0,1-3.27,3.27,3.18,3.18,0,0,1-2.34-1A3.14,3.14,0,0,1,247.21,75.4Zm-11-25.33a10.61,10.61,0,0,0-4.33.88A11,11,0,0,0,226,56.82a11,11,0,0,0,0,8.54,11,11,0,0,0,5.83,5.87,11,11,0,0,0,8.63,0,11.18,11.18,0,0,0,5.85-5.89,10.84,10.84,0,0,0,0-8.51A11.12,11.12,0,0,0,240.49,51,10.54,10.54,0,0,0,236.19,50.07Z"/><path class="cls-3" d="M288.23,78.67a3.09,3.09,0,0,1-2.32-1,3.25,3.25,0,0,1-.94-2.29,14.77,14.77,0,0,1-4.59,2.47,17.24,17.24,0,0,1-5.24.77,15.65,15.65,0,0,1-6.34-1.31,16.67,16.67,0,0,1-8.74-8.74,15.64,15.64,0,0,1-1.3-6.34V46.77a3.28,3.28,0,0,1,6.56,0V62.28a9.46,9.46,0,0,0,.77,3.83,9.86,9.86,0,0,0,2.1,3.12,10.05,10.05,0,0,0,3.12,2.11,9.67,9.67,0,0,0,3.83.77,9.56,9.56,0,0,0,3.8-.77,10,10,0,0,0,5.26-5.25,9.5,9.5,0,0,0,.77-3.81V46.77a3.28,3.28,0,0,1,6.56,0V75.4a3.15,3.15,0,0,1-1,2.31A3.18,3.18,0,0,1,288.23,78.67Z"/><path class="cls-3" d="M302.89,46.77v.63A18.18,18.18,0,0,1,308,44.51a17.12,17.12,0,0,1,5.9-1,24.15,24.15,0,0,1,3,.19,12.87,12.87,0,0,1,2.92.67A6.28,6.28,0,0,1,322,45.71a2.91,2.91,0,0,1,.88,2.19,3.07,3.07,0,0,1-.27,1.29,3.47,3.47,0,0,1-.71,1.05,3.06,3.06,0,0,1-1,.71,3.26,3.26,0,0,1-1.29.25,3.47,3.47,0,0,1-1.38-.34,11.42,11.42,0,0,0-4.3-.79,10.86,10.86,0,0,0-4.3.86,11.05,11.05,0,0,0-5.86,5.86,10.86,10.86,0,0,0-.86,4.3V75.4a3.28,3.28,0,0,1-3.26,3.27,3.18,3.18,0,0,1-2.34-1,3.15,3.15,0,0,1-1-2.31V46.77a3.13,3.13,0,0,1,1-2.3,3.18,3.18,0,0,1,2.34-1,3.28,3.28,0,0,1,3.26,3.26Z"/><path class="cls-3" d="M335.47,37.26A3.86,3.86,0,0,1,328.88,40a3.86,3.86,0,1,1,6.59-2.73Zm-7.12,38.11V46.81a3.21,3.21,0,0,1,.95-2.34,3.26,3.26,0,0,1,4.62,0,3.29,3.29,0,0,1,1,2.34V75.37a3.29,3.29,0,0,1-1,2.34,3.26,3.26,0,0,1-4.62,0A3.21,3.21,0,0,1,328.35,75.37Z"/><path class="cls-3" d="M382,73.52a23.1,23.1,0,0,1-7.09,3.89,25.56,25.56,0,0,1-8.16,1.26,25.08,25.08,0,0,1-25.11-25.12,25.13,25.13,0,0,1,25.11-25.11,24.16,24.16,0,0,1,17.73,7.38A25.11,25.11,0,0,1,390,43.9a24.62,24.62,0,0,1,1.84,9.65,25.67,25.67,0,0,1-1.26,8.17,23,23,0,0,1-3.89,7.09L390.94,73a3.42,3.42,0,0,1,.69,3.64,3.15,3.15,0,0,1-.71,1,3.35,3.35,0,0,1-1.06.71,3.59,3.59,0,0,1-1.31.25,3.16,3.16,0,0,1-2.38-1Zm-9.16-9.14a3.52,3.52,0,0,1-.94-2.35,3.34,3.34,0,0,1,.25-1.3,3.11,3.11,0,0,1,.7-1.07,3.27,3.27,0,0,1,2.37-1,3.22,3.22,0,0,1,2.36,1L382,64a17.64,17.64,0,0,0,3.24-10.49A18.49,18.49,0,0,0,366.77,35.1a18.16,18.16,0,0,0-7.11,1.35,18.52,18.52,0,0,0-6,4.08,17.54,17.54,0,0,0-5.4,13,18.52,18.52,0,0,0,29,15.23Z"/><path class="cls-3" d="M426.35,78.67a3.1,3.1,0,0,1-2.33-1,3.3,3.3,0,0,1-.94-2.29,14.72,14.72,0,0,1-4.58,2.47,17.28,17.28,0,0,1-5.24.77,15.61,15.61,0,0,1-6.34-1.31,16.65,16.65,0,0,1-5.22-3.53,16.84,16.84,0,0,1-3.53-5.21,15.81,15.81,0,0,1-1.3-6.34V46.77a3.13,3.13,0,0,1,1-2.3,3.18,3.18,0,0,1,2.34-1,3.28,3.28,0,0,1,3.26,3.26V62.28a9.63,9.63,0,0,0,.77,3.83,9.86,9.86,0,0,0,2.1,3.12,10,10,0,0,0,3.13,2.11,9.63,9.63,0,0,0,3.83.77,9.51,9.51,0,0,0,3.79-.77,10,10,0,0,0,5.26-5.25,9.5,9.5,0,0,0,.77-3.81V46.77a3.13,3.13,0,0,1,1-2.3,3.18,3.18,0,0,1,2.34-1,3.28,3.28,0,0,1,3.26,3.26V75.4a3.28,3.28,0,0,1-3.29,3.27Z"/><path class="cls-3" d="M469.73,61.09a16.82,16.82,0,0,1-5.15,12.43,17.58,17.58,0,0,1-30-12.43,17.58,17.58,0,0,1,30-12.43,17.15,17.15,0,0,1,3.84,5.68A18,18,0,0,1,469.73,61.09Zm-17.58-11a10.61,10.61,0,0,0-4.33.88A11,11,0,0,0,442,56.82a11,11,0,0,0,0,8.54,11,11,0,0,0,5.83,5.87,11,11,0,0,0,8.63,0,11.18,11.18,0,0,0,5.85-5.89,10.84,10.84,0,0,0,0-8.51A11.12,11.12,0,0,0,456.45,51,10.54,10.54,0,0,0,452.15,50.07Z"/><path class="cls-3" d="M477.82,43.51h1.48V31.71a3.28,3.28,0,0,1,6.56,0v11.8h3.92a3.11,3.11,0,0,1,2.3,1,3.19,3.19,0,0,1,.94,2.3,3.23,3.23,0,0,1-.94,2.34,3.11,3.11,0,0,1-2.3,1h-3.92V65.86q0,6.24,6.28,6.25a3.12,3.12,0,0,1,2.29,1,3.17,3.17,0,0,1,.94,2.31,3.21,3.21,0,0,1-.94,2.34,3.09,3.09,0,0,1-2.29,1q-12.84,0-12.84-12.81V50.07h-1.48a3.11,3.11,0,0,1-2.27-1,3.17,3.17,0,0,1-1-2.34,3.28,3.28,0,0,1,3.23-3.26Z"/><path class="cls-3" d="M524.75,68.78A3.16,3.16,0,0,1,528,72a3.31,3.31,0,0,1-.94,2.36A17.58,17.58,0,0,1,498,61.09a17.58,17.58,0,0,1,17.58-17.58,17.85,17.85,0,0,1,16.29,10.81,17.59,17.59,0,0,1,1.28,6.77,3.11,3.11,0,0,1-.95,2.34,3.27,3.27,0,0,1-2.34.92H505a10.62,10.62,0,0,0,1.57,3.16A11.08,11.08,0,0,0,509,70a11.36,11.36,0,0,0,3.08,1.58,10.79,10.79,0,0,0,3.5.57,11,11,0,0,0,3.79-.63,10.4,10.4,0,0,0,3.21-1.89A3.42,3.42,0,0,1,524.75,68.78Zm1.41-11a10.36,10.36,0,0,0-1.58-3.15,11.38,11.38,0,0,0-2.45-2.45,11.17,11.17,0,0,0-3.07-1.58,10.74,10.74,0,0,0-3.47-.57,10.86,10.86,0,0,0-3.49.57A11.4,11.4,0,0,0,509,52.22a10.91,10.91,0,0,0-2.44,2.45A10,10,0,0,0,505,57.82Z"/><path class="cls-1" d="M83.75,13.51,67,38.37l-1.65,2.46-1.59-2.35-16.84-25A44.32,44.32,0,0,0,30.17,27.1L48.25,53.9,56.43,66a10.74,10.74,0,0,0,17.8,0l9.21-13.67,17-25.25A44.18,44.18,0,0,0,83.75,13.51Z"/><path class="cls-4" d="M63.74,38.48A17.91,17.91,0,0,0,48.25,53.9L30.17,27.1A44.32,44.32,0,0,1,46.9,13.51Z"/><path class="cls-5" d="M100.48,27.11l-17,25.25A17.89,17.89,0,0,0,67,38.37L83.75,13.51A44.18,44.18,0,0,1,100.48,27.11Z"/></g></g></svg>