<svg xmlns="http://www.w3.org/2000/svg" viewBox="0 0 41.36 42.74"><defs><style>.cls-1{fill:#d6254f;fill-rule:evenodd;}.cls-2{fill:#fff;}</style></defs><title>Icon-Answer</title><g id="Layer_2" data-name="Layer 2"><g id="Layer_1-2" data-name="Layer 1"><path class="cls-1" d="M38.14,31.74A20.74,20.74,0,1,0,31,38.6l9.49,4.14Z"/><path class="cls-2" d="M13.34,28.92a1.63,1.63,0,0,1-1-.28,1.16,1.16,0,0,1-.44-.75,1.81,1.81,0,0,1,.17-1.06l6.73-14.91a2.53,2.53,0,0,1,.8-1.06,1.93,1.93,0,0,1,1.09-.31,1.82,1.82,0,0,1,1.05.31,2.47,2.47,0,0,1,.81,1.06l6.75,14.91a1.8,1.8,0,0,1,.2,1.07,1.11,1.11,0,0,1-.43.75,1.52,1.52,0,0,1-.94.27A1.62,1.62,0,0,1,27,28.57a2.79,2.79,0,0,1-.7-1.05l-1.66-3.85,1.38.89H15.3l1.38-.89-1.63,3.85a3.29,3.29,0,0,1-.69,1.07A1.46,1.46,0,0,1,13.34,28.92Zm7.32-14.63-3.57,8.49L16.43,22h8.51l-.64.82-3.59-8.49Z"/></g></g></svg>