<svg xmlns="http://www.w3.org/2000/svg" viewBox="0 0 41.36 42.74"><defs><style>.cls-1{fill:#2e3243;fill-rule:evenodd;}.cls-2{fill:#fff;}</style></defs><title>Icon-Question</title><g id="Layer_2" data-name="Layer 2"><g id="Layer_1-2" data-name="Layer 1"><path class="cls-1" d="M38.14,31.74A20.74,20.74,0,1,0,31,38.6l9.49,4.14Z"/><path class="cls-2" d="M20.69,29a8.7,8.7,0,0,1-4.54-1.15,7.76,7.76,0,0,1-3-3.22,10.45,10.45,0,0,1-1.07-4.88,11.12,11.12,0,0,1,.61-3.81A8.48,8.48,0,0,1,14.41,13a7.89,7.89,0,0,1,2.73-1.86,9.39,9.39,0,0,1,3.55-.64,8.88,8.88,0,0,1,4.57,1.13,7.73,7.73,0,0,1,3,3.2,10.46,10.46,0,0,1,1.07,4.86,11.27,11.27,0,0,1-.61,3.83A8.53,8.53,0,0,1,27,26.45a7.52,7.52,0,0,1-2.72,1.87A9.41,9.41,0,0,1,20.69,29Zm0-2.8a5,5,0,0,0,2.82-.77,4.85,4.85,0,0,0,1.78-2.22,8.62,8.62,0,0,0,.63-3.46A7.33,7.33,0,0,0,24.55,15a4.68,4.68,0,0,0-3.86-1.68,5.09,5.09,0,0,0-2.8.75,4.72,4.72,0,0,0-1.79,2.19,8.66,8.66,0,0,0-.63,3.48,7.35,7.35,0,0,0,1.38,4.74A4.65,4.65,0,0,0,20.69,26.17Zm6.88,5.42a1.48,1.48,0,0,1,.28,1,1.34,1.34,0,0,1-.4.78,1.64,1.64,0,0,1-.82.41,1.8,1.8,0,0,1-1-.1,1.71,1.71,0,0,1-.81-.73l-1.76-2.83a2.32,2.32,0,0,0-1-.88A3.36,3.36,0,0,0,20.67,29l2.52-1a3.73,3.73,0,0,1,1.91.43,4.25,4.25,0,0,1,1.38,1.46Z"/></g></g></svg>